<svg width="186" height="40" viewBox="0 0 186 40" fill="none" xmlns="http://www.w3.org/2000/svg">
<path fill-rule="evenodd" clip-rule="evenodd" d="M5.69068 35.5942C8.30565 35.5942 10.469 33.6605 10.8288 31.145L27.6712 31.145C28.031 33.6605 30.1944 35.5942 32.8093 35.5942C35.6761 35.5942 38 33.2702 38 30.4035C38 27.5368 35.6761 25.2128 32.8093 25.2128C32.3538 25.2128 31.912 25.2715 31.491 25.3817L22.1655 9.48677C23.5388 8.55281 24.4407 6.97756 24.4407 5.19165C24.4407 2.32492 22.1167 0.000976562 19.25 0.000976562C16.3833 0.000976562 14.0593 2.32492 14.0593 5.19165C14.0593 6.97756 14.9612 8.55281 16.3345 9.48677L7.009 25.3817C6.58803 25.2715 6.1462 25.2128 5.69068 25.2128C2.82395 25.2128 0.5 27.5368 0.5 30.4035C0.5 33.2702 2.82395 35.5942 5.69068 35.5942ZM20.1604 8.78667C19.8691 8.86021 19.5641 8.89928 19.25 8.89928C18.9359 8.89928 18.6309 8.86021 18.3396 8.78667C17.9109 8.67844 17.5119 8.49553 17.1572 8.2526C16.1821 7.58464 15.5424 6.46286 15.5424 5.19165C15.5424 3.14399 17.2023 1.48403 19.25 1.48403C21.2977 1.48403 22.9576 3.14399 22.9576 5.19165C22.9576 6.46286 22.3179 7.58464 21.3428 8.2526C20.9881 8.49554 20.5891 8.67844 20.1604 8.78667ZM20.8192 10.1409C20.3242 10.2977 19.797 10.3823 19.25 10.3823C18.703 10.3823 18.1758 10.2977 17.6808 10.1409L8.39701 25.9733C9.68702 26.7631 10.6054 28.1004 10.8288 29.662L27.6712 29.662C27.8946 28.1004 28.813 26.7631 30.103 25.9733L20.8192 10.1409ZM5.69068 26.6959C7.73834 26.6959 9.39831 28.3558 9.39831 30.4035C9.39831 32.4512 7.73834 34.1111 5.69068 34.1111C3.64301 34.1111 1.98305 32.4512 1.98305 30.4035C1.98305 28.3558 3.64301 26.6959 5.69068 26.6959ZM32.8093 34.1111C30.7617 34.1111 29.1017 32.4512 29.1017 30.4035C29.1017 28.3558 30.7617 26.6959 32.8093 26.6959C34.857 26.6959 36.5169 28.3558 36.5169 30.4035C36.5169 32.4512 34.857 34.1111 32.8093 34.1111Z" fill="#18181B"/>
<circle cx="19.2502" cy="5.19068" r="4.44915" stroke="#80BC36" stroke-width="1.48305"/>
<circle cx="5.69068" cy="30.4036" r="4.44915" stroke="#8FA6AB" stroke-width="1.48305"/>
<circle cx="32.8088" cy="30.4036" r="4.44915" stroke="#50CCFA" stroke-width="1.48305"/>
<path d="M59.0367 10.9299C59.8151 10.2838 60.7029 9.75213 61.7001 9.33495C62.6921 8.91777 63.819 8.70918 65.0808 8.70918V13.7383C63.3968 13.7383 61.9697 14.3284 60.7996 15.5087C59.6243 16.7348 59.0367 18.1619 59.0367 19.7899V30.3212H54V19.7899V9.29679H59.0367V10.9299ZM82.5795 9.29679H87.6162V30.3212H82.5795V19.8281C82.5795 18.1492 81.9919 16.7221 80.8167 15.5469C79.6414 14.3717 78.2144 13.784 76.5355 13.784C75.7265 13.784 74.9507 13.9367 74.2079 14.2419C73.4651 14.5523 72.8139 14.9873 72.2543 15.5469C71.079 16.7221 70.4914 18.1492 70.4914 19.8281C70.4914 21.4765 71.079 22.8883 72.2543 24.0635C72.8139 24.6537 73.4651 25.0963 74.2079 25.3914C74.9507 25.6865 75.7265 25.834 76.5355 25.834C77.3749 25.834 78.1304 25.6941 78.802 25.4143L80.6106 29.9015C79.3235 30.5426 77.8252 30.8631 76.1157 30.8631C74.5793 30.8631 73.1599 30.5782 71.8574 30.0084C70.555 29.4335 69.4281 28.6423 68.4767 27.635C67.5254 26.6277 66.7851 25.4524 66.256 24.1093C65.7218 22.7662 65.4547 21.3391 65.4547 19.8281C65.4547 18.2916 65.7218 16.8519 66.256 15.5087C66.7851 14.1656 67.5254 12.9878 68.4767 11.9754C69.4281 10.9681 70.555 10.1795 71.8574 9.60968C73.1599 9.03478 74.5793 8.74733 76.1157 8.74733C77.4894 8.74733 78.7079 8.95592 79.7712 9.37311C80.8345 9.79537 81.7706 10.327 82.5795 10.9681V9.29679ZM112.09 9.33495V28.2226C112.09 29.7336 111.803 31.1607 111.228 32.5038C110.653 33.8469 109.862 35.0222 108.854 36.0295C107.847 37.0369 106.672 37.8356 105.329 38.4258C103.986 39.0108 102.543 39.3034 101.002 39.3034C99.745 39.3034 98.5571 39.1075 97.4378 38.7158C96.3186 38.324 95.2832 37.7644 94.3318 37.0369L97.9796 33.4272C98.8802 33.9869 99.8875 34.2667 101.002 34.2667C102.711 34.2667 104.141 33.6663 105.291 32.4657C106.461 31.2853 107.046 29.871 107.046 28.2226V19.7899C107.046 18.1619 106.461 16.7348 105.291 15.5087C104.115 14.3284 102.686 13.7383 101.002 13.7383C99.3838 13.7383 97.9568 14.3284 96.7205 15.5087C95.5503 16.7348 94.9653 18.1619 94.9653 19.7899C94.9653 21.4638 95.5503 22.8883 96.7205 24.0635C97.9568 25.2438 99.3838 25.834 101.002 25.834C101.841 25.834 102.599 25.6941 103.276 25.4143L105.161 30.1076C103.904 30.6112 102.548 30.8631 101.093 30.8631H101.002C99.4907 30.8631 98.0636 30.5782 96.7205 30.0084C95.3773 29.4335 94.2047 28.6423 93.2024 27.635C92.19 26.6277 91.3912 25.4524 90.8062 24.1093C90.2211 22.7662 89.9285 21.3264 89.9285 19.7899C89.9285 18.2484 90.1804 16.8061 90.684 15.4629C91.1826 14.1198 91.8873 12.9446 92.7979 11.9373C93.7086 10.9299 94.7999 10.1388 96.0718 9.56389C97.3437 8.99408 98.7377 8.70918 100.254 8.70918C101.704 8.70918 102.988 8.9254 104.108 9.35784C105.232 9.79029 106.211 10.327 107.046 10.9681V9.33495H112.09ZM119.645 30.3212H114.601V9.33495H119.645V30.3212ZM114.601 5.97714V0.94043H119.645V5.97714H114.601ZM143.821 22.3465H138.533H127.536C127.816 22.9875 128.22 23.5598 128.749 24.0635C129.34 24.6537 129.998 25.0963 130.726 25.3914C131.453 25.6865 132.222 25.834 133.031 25.834C134.18 25.834 135.203 25.5669 136.098 25.0327L141.341 27.1313C140.334 28.3066 139.115 29.2223 137.686 29.8786C136.261 30.5349 134.709 30.8631 133.031 30.8631C131.494 30.8631 130.054 30.5782 128.711 30.0084C127.368 29.4335 126.19 28.6423 125.178 27.635C124.176 26.6277 123.387 25.4524 122.812 24.1093C122.237 22.7662 121.95 21.3391 121.95 19.8281C121.95 18.2916 122.237 16.8519 122.812 15.5087C123.387 14.1656 124.176 12.9878 125.178 11.9754C126.19 10.9681 127.368 10.1795 128.711 9.60968C130.054 9.03478 131.494 8.74733 133.031 8.74733C134.572 8.74733 136.014 9.03478 137.358 9.60968C138.701 10.1795 139.876 10.9681 140.883 11.9754C141.891 12.9878 142.679 14.1656 143.249 15.5087C143.824 16.8519 144.111 18.2916 144.111 19.8281C144.111 20.7235 144.015 21.563 143.821 22.3465ZM133.031 13.784C131.408 13.784 129.981 14.3717 128.749 15.5469C128.22 16.076 127.816 16.6636 127.536 17.3097H138.533C138.253 16.6636 137.846 16.076 137.312 15.5469C136.137 14.3717 134.709 13.784 133.031 13.784ZM152.506 30.3212H147.469V25.2845H152.506V30.3212ZM172.989 9.29679H178.025V30.3212H172.989V19.8281C172.989 18.1492 172.401 16.7221 171.226 15.5469C170.05 14.3717 168.623 13.784 166.944 13.784C166.136 13.784 165.36 13.9367 164.617 14.2419C163.874 14.5523 163.223 14.9873 162.663 15.5469C161.488 16.7221 160.9 18.1492 160.9 19.8281C160.9 21.4765 161.488 22.8883 162.663 24.0635C163.223 24.6537 163.874 25.0963 164.617 25.3914C165.36 25.6865 166.136 25.834 166.944 25.834C167.784 25.834 168.539 25.6941 169.211 25.4143L171.02 29.9015C169.732 30.5426 168.234 30.8631 166.525 30.8631C164.983 30.8631 163.564 30.5782 162.266 30.0084C160.964 29.4335 159.837 28.6423 158.886 27.635C157.934 26.6277 157.194 25.4524 156.665 24.1093C156.131 22.7662 155.864 21.3391 155.864 19.8281C155.864 18.2916 156.131 16.8519 156.665 15.5087C157.194 14.1656 157.934 12.9878 158.886 11.9754C159.837 10.9681 160.964 10.1795 162.266 9.60968C163.564 9.03478 164.983 8.74733 166.525 8.74733C167.893 8.74733 169.109 8.95592 170.173 9.37311C171.236 9.79537 172.174 10.327 172.989 10.9681V9.29679ZM186 30.3212H180.963V9.33495H186V30.3212ZM180.963 5.97714V0.94043H186V5.97714H180.963Z" fill="#18181B"/>
</svg>
