<svg width="184" height="135" viewBox="0 0 184 135" fill="none" xmlns="http://www.w3.org/2000/svg">
<path fill-rule="evenodd" clip-rule="evenodd" d="M68.0761 63.977C72.7763 63.977 76.6648 60.5013 77.3116 55.9798L107.585 55.9798C108.232 60.5013 112.12 63.977 116.82 63.977C121.973 63.977 126.15 59.7998 126.15 54.647C126.15 49.4942 121.973 45.317 116.82 45.317C116.002 45.317 115.207 45.4225 114.451 45.6206L97.6888 17.0502C100.157 15.3715 101.778 12.5401 101.778 9.32997C101.778 4.17717 97.6011 0 92.4482 0C87.2954 0 83.1183 4.17717 83.1183 9.32997C83.1183 12.5401 84.7394 15.3715 87.2077 17.0502L70.4457 45.6206C69.689 45.4225 68.8949 45.317 68.0761 45.317C62.9233 45.317 58.7461 49.4942 58.7461 54.647C58.7461 59.7998 62.9233 63.977 68.0761 63.977ZM94.0847 15.7918C93.5611 15.924 93.0129 15.9942 92.4482 15.9942C91.8836 15.9942 91.3354 15.924 90.8118 15.7918C90.0412 15.5973 89.324 15.2685 88.6866 14.8319C86.9339 13.6312 85.784 11.6149 85.784 9.32997C85.784 5.6494 88.7677 2.66571 92.4482 2.66571C96.1288 2.66571 99.1125 5.6494 99.1125 9.32997C99.1125 11.6149 97.9626 13.6312 96.2099 14.8319C95.5725 15.2685 94.8553 15.5973 94.0847 15.7918ZM95.2689 18.226C94.379 18.5079 93.4314 18.6599 92.4482 18.6599C91.4651 18.6599 90.5175 18.5079 89.6276 18.226L72.9406 46.6839C75.2593 48.1034 76.9101 50.5073 77.3116 53.3141L107.585 53.3141C107.986 50.5073 109.637 48.1034 111.956 46.6839L95.2689 18.226ZM68.0761 47.9827C71.7566 47.9827 74.7403 50.9664 74.7403 54.647C74.7403 58.3276 71.7566 61.3112 68.0761 61.3112C64.3955 61.3112 61.4118 58.3276 61.4118 54.647C61.4118 50.9664 64.3955 47.9827 68.0761 47.9827ZM116.82 61.3112C113.14 61.3112 110.156 58.3276 110.156 54.647C110.156 50.9664 113.14 47.9827 116.82 47.9827C120.501 47.9827 123.485 50.9664 123.485 54.647C123.485 58.3276 120.501 61.3112 116.82 61.3112Z" fill="#F9FAFB"/>
<circle cx="92.4472" cy="9.32997" r="7.99712" stroke="#80BC36" stroke-width="2.66571"/>
<circle cx="68.0761" cy="54.6478" r="7.99712" stroke="#8FA6AB" stroke-width="2.66571"/>
<circle cx="116.822" cy="54.6478" r="7.99712" stroke="#50CCFA" stroke-width="2.66571"/>
<path d="M7.02087 93.8827C8.10591 92.9821 9.34343 92.241 10.7334 91.6595C12.1163 91.0779 13.6872 90.7872 15.4459 90.7872V97.7974C13.0985 97.7974 11.1093 98.62 9.47818 100.265C7.83997 101.974 7.02087 103.964 7.02087 106.233V120.913H0V106.233V91.6063H7.02087V93.8827ZM39.8381 91.6063H46.859V120.913H39.8381V106.286C39.8381 103.946 39.019 101.957 37.3808 100.319C35.7426 98.6803 33.7534 97.8612 31.4131 97.8612C30.2855 97.8612 29.204 98.074 28.1686 98.4995C27.1332 98.9321 26.2254 99.5384 25.4453 100.319C23.8071 101.957 22.988 103.946 22.988 106.286C22.988 108.584 23.8071 110.552 25.4453 112.19C26.2254 113.013 27.1332 113.63 28.1686 114.041C29.204 114.452 30.2855 114.658 31.4131 114.658C32.5832 114.658 33.6364 114.463 34.5725 114.073L37.0936 120.328C35.2994 121.222 33.2108 121.668 30.828 121.668C28.6863 121.668 26.7077 121.271 24.8922 120.477C23.0767 119.676 21.5058 118.573 20.1797 117.169C18.8535 115.764 17.8217 114.126 17.0841 112.254C16.3395 110.382 15.9672 108.393 15.9672 106.286C15.9672 104.145 16.3395 102.138 17.0841 100.265C17.8217 98.3931 18.8535 96.7514 20.1797 95.3401C21.5058 93.9359 23.0767 92.8367 24.8922 92.0424C26.7077 91.241 28.6863 90.8404 30.828 90.8404C32.7428 90.8404 34.4413 91.1311 35.9235 91.7126C37.4056 92.3013 38.7105 93.0424 39.8381 93.9359V91.6063ZM80.974 91.6595V117.988C80.974 120.094 80.5734 122.083 79.772 123.955C78.9706 125.828 77.8678 127.466 76.4637 128.87C75.0595 130.274 73.4213 131.388 71.5491 132.21C69.6768 133.026 67.6663 133.434 65.5175 133.434C63.7658 133.434 62.1099 133.161 60.5497 132.615C58.9895 132.068 57.5463 131.288 56.2202 130.274L61.305 125.243C62.5602 126.023 63.9644 126.413 65.5175 126.413C67.9003 126.413 69.8931 125.576 71.4959 123.902C73.127 122.257 73.9425 120.285 73.9425 117.988V106.233C73.9425 103.964 73.127 101.974 71.4959 100.265C69.8577 98.62 67.8649 97.7974 65.5175 97.7974C63.2623 97.7974 61.2731 98.62 59.5497 100.265C57.9186 101.974 57.1031 103.964 57.1031 106.233C57.1031 108.566 57.9186 110.552 59.5497 112.19C61.2731 113.835 63.2623 114.658 65.5175 114.658C66.6876 114.658 67.7443 114.463 68.6875 114.073L71.315 120.615C69.5634 121.317 67.6734 121.668 65.6451 121.668H65.5175C63.4112 121.668 61.422 121.271 59.5497 120.477C57.6775 119.676 56.0429 118.573 54.6458 117.169C53.2345 115.764 52.1211 114.126 51.3055 112.254C50.49 110.382 50.0822 108.375 50.0822 106.233C50.0822 104.084 50.4333 102.074 51.1353 100.202C51.8303 98.3293 52.8125 96.6911 54.082 95.2869C55.3514 93.8827 56.8726 92.78 58.6455 91.9786C60.4185 91.1843 62.3616 90.7872 64.475 90.7872C66.4962 90.7872 68.2868 91.0886 69.847 91.6914C71.4143 92.2942 72.7795 93.0424 73.9425 93.9359V91.6595H80.974ZM91.5053 120.913H84.4738V91.6595H91.5053V120.913ZM84.4738 86.9789V79.958H91.5053V86.9789H84.4738ZM125.206 109.797H117.834H102.505C102.895 110.69 103.459 111.488 104.196 112.19C105.019 113.013 105.937 113.63 106.951 114.041C107.965 114.452 109.036 114.658 110.164 114.658C111.767 114.658 113.192 114.286 114.44 113.541L121.748 116.467C120.344 118.105 118.646 119.381 116.653 120.296C114.667 121.211 112.504 121.668 110.164 121.668C108.022 121.668 106.015 121.271 104.143 120.477C102.271 119.676 100.629 118.573 99.2177 117.169C97.8206 115.764 96.7214 114.126 95.92 112.254C95.1186 110.382 94.7179 108.393 94.7179 106.286C94.7179 104.145 95.1186 102.138 95.92 100.265C96.7214 98.3931 97.8206 96.7514 99.2177 95.3401C100.629 93.9359 102.271 92.8367 104.143 92.0424C106.015 91.241 108.022 90.8404 110.164 90.8404C112.313 90.8404 114.323 91.241 116.195 92.0424C118.068 92.8367 119.706 93.9359 121.11 95.3401C122.514 96.7514 123.613 98.3931 124.408 100.265C125.209 102.138 125.61 104.145 125.61 106.286C125.61 107.534 125.475 108.705 125.206 109.797ZM110.164 97.8612C107.902 97.8612 105.912 98.6803 104.196 100.319C103.459 101.056 102.895 101.875 102.505 102.776H117.834C117.444 101.875 116.876 101.056 116.132 100.319C114.493 98.6803 112.504 97.8612 110.164 97.8612ZM137.311 120.913H130.29V113.892H137.311V120.913ZM165.863 91.6063H172.884V120.913H165.863V106.286C165.863 103.946 165.044 101.957 163.405 100.319C161.767 98.6803 159.778 97.8612 157.438 97.8612C156.31 97.8612 155.229 98.074 154.193 98.4995C153.158 98.9321 152.25 99.5384 151.47 100.319C149.832 101.957 149.013 103.946 149.013 106.286C149.013 108.584 149.832 110.552 151.47 112.19C152.25 113.013 153.158 113.63 154.193 114.041C155.229 114.452 156.31 114.658 157.438 114.658C158.608 114.658 159.661 114.463 160.597 114.073L163.118 120.328C161.324 121.222 159.235 121.668 156.853 121.668C154.704 121.668 152.725 121.271 150.917 120.477C149.101 119.676 147.53 118.573 146.204 117.169C144.878 115.764 143.846 114.126 143.109 112.254C142.364 110.382 141.992 108.393 141.992 106.286C141.992 104.145 142.364 102.138 143.109 100.265C143.846 98.3931 144.878 96.7514 146.204 95.3401C147.53 93.9359 149.101 92.8367 150.917 92.0424C152.725 91.241 154.704 90.8404 156.853 90.8404C158.76 90.8404 160.455 91.1311 161.937 91.7126C163.42 92.3013 164.728 93.0424 165.863 93.9359V91.6063ZM184 120.913H176.979V91.6595H184V120.913ZM176.979 86.9789V79.958H184V86.9789H176.979Z" fill="#F9FAFB"/>
</svg>
